<svg width="1440" height="145" viewBox="0 0 1440 145" fill="none" xmlns="http://www.w3.org/2000/svg">
<path opacity="0.25" d="M0 0V55.9338C57.7463 82.7588 125.171 94.8058 190.917 89.7671C275.935 83.2783 355.649 49.5175 440.8 44.4546C530.023 39.1863 619.078 64.8513 704.458 87.0604C788.16 108.81 871.571 117.124 957.483 102.865C1001.16 95.6154 1041.89 81.3088 1083.69 67.4129C1195.63 30.2083 1344.88 -17.2671 1450 63.4013V0H0Z" fill="#D2E0FC"/>
<path opacity="0.5" d="M0 0V19.1037C15.7083 44.6117 33.3983 68.7058 57.6254 87.0604C120.12 134.451 199.375 134.125 271.368 110.659C309.007 98.3946 343.976 79.1579 379.719 62.5675C429.164 39.6092 482.101 6.98417 537.805 2.54958C581.619 -0.894167 623.476 13.9321 656.947 40.6846C695.335 71.3642 732.25 115.601 782.166 128.893C831.031 141.931 880.464 120.809 926.115 99.5546C971.766 78.3 1016.93 52.4296 1067.39 47.5358C1139.57 40.4671 1204.27 75.1825 1271.48 94.4675C1307.97 104.932 1342.77 101.923 1376.71 85.405C1403.82 72.2462 1434.71 52.8646 1450 25.9067V0H0Z" fill="#D2E0FC"/>
<path d="M0 0V6.80292C181.165 71.2917 379.525 86.1783 574.961 51.4388C626.92 42.2071 676.739 27.1271 729.157 19.4663C800.448 9.03833 865.07 34.2562 929.208 62.2412C1000.42 93.3075 1070.58 115.082 1149.37 108.75C1253.92 100.292 1357.76 53.5171 1450 6.27125V0H0Z" fill="#D2E0FC"/>
</svg>
